<svg width="16" height="22" viewBox="0 0 16 22" fill="none" xmlns="http://www.w3.org/2000/svg">
<path d="M15.48 11.8501C13.91 7.77014 8.32 7.55014 9.67 1.62014C9.77 1.18014 9.3 0.84014 8.92 1.07014C5.29 3.21014 2.68 7.50014 4.87 13.1201C5.05 13.5801 4.51 14.0101 4.12 13.7101C2.31 12.3401 2.12 10.3701 2.28 8.96014C2.34 8.44014 1.66 8.19014 1.37 8.62014C0.69 9.66014 0 11.3401 0 13.8701C0.38 19.4701 5.11 21.1901 6.81 21.4101C9.24 21.7201 11.87 21.2701 13.76 19.5401C15.84 17.6101 16.6 14.5301 15.48 11.8501ZM6.2 16.8801C7.64 16.5301 8.38 15.4901 8.58 14.5701C8.91 13.1401 7.62 11.7401 8.49 9.48014C8.82 11.3501 11.76 12.5201 11.76 14.5601C11.84 17.0901 9.1 19.2601 6.2 16.8801Z" fill="#2A4C38"/>
</svg>
