<svg width="18" height="17" viewBox="0 0 18 17" fill="none" xmlns="http://www.w3.org/2000/svg">
<path d="M18 8.5V6.5H16V3.5L13 0.5L11 2.5L9 0.5L7 2.5L5 0.5L2 3.5V6.5H0V8.5H2V10.5H0V12.5H2V16.5H16V12.5H18V10.5H16V8.5H18ZM13 3.33L14 4.33V6.5H12V4.33L12.41 3.92L13 3.33ZM9 3.33L9.59 3.92L10 4.33V6.5H8V4.33L8.41 3.92L9 3.33ZM8 10.5V8.5H10V10.5H8ZM10 12.5V14.5H8V12.5H10ZM4 4.33L5 3.33L5.59 3.92L6 4.33V6.5H4V4.33ZM4 8.5H6V10.5H4V8.5ZM4 12.5H6V14.5H4V12.5ZM14 14.5H12V12.5H14V14.5ZM14 10.5H12V8.5H14V10.5Z" fill="#2A4C38"/>
</svg>
