<svg width="72" height="72" viewBox="0 0 72 72" fill="none" xmlns="http://www.w3.org/2000/svg">
<path fill-rule="evenodd" clip-rule="evenodd" d="M24.2401 18.06C24.4351 18.015 24.6301 18 24.8401 18H45.8401C47.4901 18 48.8401 19.35 48.8401 21V37.1424L45.8401 40.1424V21H24.8401V27.9299L33.8401 36.8849V38.9999L31.725 39L27.48 34.77L27.18 35.07C26.49 35.76 25.6951 36.27 24.8401 36.615V49.5H38.3056L42.021 52.5H24.8401C24.6301 52.5 24.4351 52.485 24.2401 52.455C23.6551 52.335 23.1301 52.035 22.7251 51.63C22.4551 51.345 22.2301 51.03 22.0801 50.67C21.9301 50.31 21.8401 49.905 21.8401 49.5V40.5H21.825V37.095C20.13 37.02 18.45 36.345 17.16 35.055V33.39H15.495L10.5 28.395C12.555 26.34 15.24 25.32 17.925 25.32C19.26 25.32 20.595 25.575 21.84 26.07L21.8401 21C21.8401 20.58 21.9301 20.19 22.0801 19.845C22.2301 19.485 22.4551 19.155 22.7251 18.885C23.1301 18.48 23.6551 18.18 24.2401 18.06ZM23.235 30.51L25.35 32.625L25.05 32.925C24.982 32.993 24.912 33.0584 24.8401 33.1211C24.1031 33.7639 23.1677 34.125 22.17 34.125C22.0596 34.125 21.9495 34.1206 21.8401 34.1119C21.251 34.0649 20.681 33.8933 20.175 33.615V30.39H16.755L15.195 28.83C16.05 28.5 16.98 28.32 17.925 28.32C19.3322 28.32 20.6733 28.7023 21.8401 29.4155C22.3399 29.721 22.8077 30.0872 23.235 30.51Z" fill="white"/>
<path d="M54.2251 36L56.3401 38.13L44.3402 50.1299L38.3401 44.13L40.4551 42.015L44.3401 45.885L54.2251 36Z" fill="white"/>
<path d="M42.8401 39H36.8401V36H42.8401V39Z" fill="white"/>
<path d="M42.8401 33H34.1889L31.1739 30H42.8401V33Z" fill="white"/>
<path d="M34.5901 45V42H27.8401V45H34.5901Z" fill="white"/>
<path d="M27.8401 24H42.8401V27H27.8401V24Z" fill="white"/>
</svg>
