<svg width="72" height="72" viewBox="0 0 72 72" fill="none" xmlns="http://www.w3.org/2000/svg">
<path d="M42 39L36.21 30H39L28.5 15L24 21.435L19.5 15L9 30H11.79L6 39H16.5V45H22.5V39H25.5V45H31.5V39H42ZM28.5 20.235L33.24 27H30.72L36.51 36H31.08L27.225 30H30L25.83 24.045L28.5 20.235ZM11.49 36L17.28 27H14.76L19.5 20.235L24.24 27H21.72L27.51 36H11.49Z" fill="white"/>
<path fill-rule="evenodd" clip-rule="evenodd" d="M63.4167 58.3268C60.4496 59.6455 56.5871 60.375 52.5 60.375C48.4129 60.375 44.5504 59.6455 41.5833 58.3268C40.1041 57.6693 38.698 56.799 37.6161 55.6621C36.5176 54.5079 35.625 52.9266 35.625 51C35.625 49.0734 36.5176 47.4921 37.6161 46.3379C38.698 45.201 40.1041 44.3307 41.5833 43.6732C44.5504 42.3545 48.4129 41.625 52.5 41.625C56.5871 41.625 60.4496 42.3545 63.4167 43.6732C64.8959 44.3307 66.302 45.201 67.3839 46.3379C68.4824 47.4921 69.375 49.0734 69.375 51C69.375 52.9266 68.4824 54.5079 67.3839 55.6621C66.302 56.799 64.8959 57.6693 63.4167 58.3268ZM52.5 57C59.9558 57 66 54.3137 66 51C66 47.6863 59.9558 45 52.5 45C45.0442 45 39 47.6863 39 51C39 54.3137 45.0442 57 52.5 57Z" fill="white"/>
<path fill-rule="evenodd" clip-rule="evenodd" d="M46.5 34.5L46.5 28.5L49.875 28.5L49.875 34.5L46.5 34.5Z" fill="white"/>
<path fill-rule="evenodd" clip-rule="evenodd" d="M55.5 34.5L55.5 28.5L58.875 28.5L58.875 34.5L55.5 34.5Z" fill="white"/>
<path fill-rule="evenodd" clip-rule="evenodd" d="M64.5 37.5L64.5 31.5L67.875 31.5L67.875 37.5L64.5 37.5Z" fill="white"/>
</svg>
