<svg width="72" height="72" viewBox="0 0 72 72" fill="none" xmlns="http://www.w3.org/2000/svg">
<path fill-rule="evenodd" clip-rule="evenodd" d="M35.4 19.2V25.56L39 28.8H35.4V38.4H28.2V31.2H25.8V38.4H18.6V28.8H15L27 18L31.8 22.32V19.2H35.4ZM30.6 36H33V26.628L27 21.228L21 26.628V36H23.4V28.8H30.6V36ZM26.9999 24C28.3199 24 29.3999 25.08 29.3999 26.4H24.5999C24.5999 25.08 25.6799 24 26.9999 24Z" fill="white"/>
<path d="M37.0001 27L35.4 25.56L35.4001 24H30.08L33 26.628L33.0001 27H37.0001Z" fill="white"/>
<path d="M35.4001 30H33.0001V33H35.4001V30Z" fill="white"/>
<path d="M38.4001 33V31.8H39.0001C40.197 31.8 41.2746 31.0893 41.7497 30H54V33H38.4001Z" fill="white"/>
<path d="M35.4001 36H33H30.6H30V38.4H35.4L35.4001 36Z" fill="white"/>
<path d="M38.3401 39C38.3795 38.8061 38.4001 38.6055 38.4001 38.4V36H54V39H38.3401Z" fill="white"/>
<path d="M30.6001 33V30H30V33H30.6001Z" fill="white"/>
<path d="M41.4003 27C41.285 26.8462 41.1536 26.7021 41.007 26.5701L38.4001 24.2239V24H54V27H41.4003Z" fill="white"/>
<path d="M40.5 45H30V42H40.5V45Z" fill="white"/>
<path d="M40.5 51H30V48H40.5V51Z" fill="white"/>
<path d="M45 44.625L47.115 46.755L51.87 42L54 44.13L47.115 51L42.885 46.74L45 44.625Z" fill="white"/>
</svg>
