<svg width="72" height="72" viewBox="0 0 72 72" fill="none" xmlns="http://www.w3.org/2000/svg">
<path d="M30.3 34.8H32.7V37.2H30.3V34.8ZM47.1 28.8V45.6C47.1 46.92 46.02 48 44.7 48H27.9C26.568 48 25.5 46.92 25.5 45.6L25.512 28.8C25.512 27.48 26.568 26.4 27.9 26.4H29.1V24H31.5V26.4H41.1V24H43.5V26.4H44.7C46.02 26.4 47.1 27.48 47.1 28.8ZM27.9 31.2H44.7V28.8H27.9V31.2ZM44.7 45.6V33.6H27.9V45.6H44.7ZM39.9 37.2H42.3V34.8H39.9V37.2ZM35.1 37.2H37.5V34.8H35.1V37.2Z" fill="white"/>
<path opacity="0.1" fill-rule="evenodd" clip-rule="evenodd" d="M7.80483 25.7276C6.63706 28.932 6 32.3916 6 36C6 49.8128 15.335 61.4452 28.0404 64.9326V62.3986C27.9318 62.3101 27.8273 62.2158 27.7274 62.1159C27.5828 61.9713 27.4501 61.8172 27.3297 61.655C16.63 58.0403 8.92683 47.9197 8.92683 36C8.92683 32.855 9.46309 29.8352 10.4492 27.0272C9.62145 26.744 8.70585 26.3231 7.80483 25.7276ZM22.9921 12.2508C22.5196 11.5667 21.9934 11.0026 21.4944 10.529C21.3144 10.3582 21.1328 10.1944 20.9555 10.0393C25.3781 7.47076 30.5173 6 36 6C41.2014 6 46.0936 7.32372 50.3582 9.65265C49.8158 10.4694 49.5 11.4473 49.5 12.4925V12.5276C45.5262 10.2372 40.9161 8.92683 36 8.92683C31.2855 8.92683 26.8525 10.1319 22.9921 12.2508ZM61.8586 27.9575C62.6479 30.4983 63.0732 33.1995 63.0732 36C63.0732 47.5075 55.8936 57.3381 45.7694 61.2569C46.0844 61.7794 46.2549 62.3822 46.2549 63.0026C46.2549 63.4498 46.1663 63.8879 45.9989 64.2933C57.6514 60.1753 66 49.0626 66 36C66 32.9873 65.5559 30.0782 64.7296 27.3348L61.8586 27.9575ZM40.76 65.6245C41.1062 65.5693 41.4504 65.5082 41.7925 65.4412C41.5418 65.1229 41.3468 64.9113 41.3468 64.9113C41.3468 64.9113 41.0746 65.2067 40.76 65.6245Z" fill="white"/>
<path d="M21.1517 15.1238C19.615 11.1304 14.1435 10.915 15.4649 5.11081C15.5628 4.68014 15.1028 4.34735 14.7308 4.57248C11.1778 6.66709 8.62316 10.8661 10.7667 16.3669C10.9429 16.8172 10.4144 17.238 10.0326 16.9444C8.26101 15.6035 8.07504 13.6752 8.23165 12.2951C8.29037 11.7862 7.62479 11.5415 7.34094 11.9624C6.67537 12.9803 6 14.6247 6 17.101C6.37194 22.5822 11.0016 24.2658 12.6656 24.4811C15.044 24.7845 17.6183 24.3441 19.4682 22.6508C21.5041 20.7617 22.2479 17.747 21.1517 15.1238ZM12.0685 20.0472C13.478 19.7046 14.2023 18.6866 14.398 17.7862C14.721 16.3865 13.4584 15.0162 14.3099 12.8041C14.6329 14.6345 17.5106 15.7796 17.5106 17.7764C17.5889 20.2527 14.907 22.3767 12.0685 20.0472Z" fill="white"/>
<path d="M63.3333 12.5V17.5483L59.5417 21.3508V23.3333H58.4583V21.3508L54.6667 17.5375V12.5H63.3333ZM63.3333 6H61.1667V10.3333H56.8333V6H54.6667V10.3333H54.6558C53.475 10.3225 52.5 11.2975 52.5 12.4783V18.4583L56.2917 22.25V25.5H61.7083V22.25L65.5 18.4475V12.5C65.5 11.3083 64.525 10.3333 63.3333 10.3333V6Z" fill="white"/>
<path d="M41.0792 64.8156C41.0792 64.8156 42.5297 66.3894 42.5297 67.354C42.5297 67.7387 42.3769 68.1076 42.1049 68.3797C41.8329 68.6517 41.4639 68.8045 41.0792 68.8045C40.6945 68.8045 40.3256 68.6517 40.0536 68.3797C39.7816 68.1076 39.6287 67.7387 39.6287 67.354C39.6287 66.3894 41.0792 64.8156 41.0792 64.8156ZM30.9257 67.354V60.8267C30.5411 60.8267 30.1721 60.6739 29.9001 60.4019C29.6281 60.1299 29.4752 59.7609 29.4752 59.3762C29.4752 58.9916 29.6281 58.6226 29.9001 58.3506C30.1721 58.0786 30.5411 57.9257 30.9257 57.9257V57.2005C30.9257 56.8158 31.0786 56.4469 31.3506 56.1748C31.6226 55.9028 31.9916 55.75 32.3762 55.75H33.8267C34.2114 55.75 34.5804 55.9028 34.8524 56.1748C35.1244 56.4469 35.2772 56.8158 35.2772 57.2005V57.9257H41.0792C41.4639 57.9257 41.8329 58.0786 42.1049 58.3506C42.3769 58.6226 42.5297 58.9916 42.5297 59.3762V60.8267V62.2772C42.7221 62.2772 42.9066 62.3537 43.0426 62.4897C43.1786 62.6257 43.255 62.8102 43.255 63.0025C43.255 63.1948 43.1786 63.3793 43.0426 63.5153C42.9066 63.6513 42.7221 63.7277 42.5297 63.7277H39.6287C39.4364 63.7277 39.2519 63.6513 39.1159 63.5153C38.9799 63.3793 38.9035 63.1948 38.9035 63.0025C38.9035 62.8102 38.9799 62.6257 39.1159 62.4897C39.2519 62.3537 39.4364 62.2772 39.6287 62.2772V60.8267H35.2772V67.354H36.0025C36.3872 67.354 36.7561 67.5068 37.0282 67.7788C37.3002 68.0509 37.453 68.4198 37.453 68.8045V70.255H28.75V68.8045C28.75 68.4198 28.9028 68.0509 29.1748 67.7788C29.4469 67.5068 29.8158 67.354 30.2005 67.354H30.9257Z" fill="white"/>
</svg>
