<svg width="20" height="21" viewBox="0 0 20 21" fill="none" xmlns="http://www.w3.org/2000/svg">
<path d="M16 11.5C12.69 11.5 10 14.19 10 17.5C13.31 17.5 16 14.81 16 11.5ZM4 11.5C4 14.81 6.69 17.5 10 17.5C10 14.19 7.31 11.5 4 11.5ZM6 9.53C6 10.39 6.7 11.09 7.56 11.09C7.89 11.09 8.19 10.99 8.45 10.81L8.44 10.93C8.44 11.79 9.14 12.49 10 12.49C10.86 12.49 11.56 11.79 11.56 10.93L11.55 10.81C11.8 10.98 12.11 11.09 12.44 11.09C13.3 11.09 14 10.39 14 9.53C14 8.91 13.63 8.37 13.11 8.12C13.63 7.88 14 7.34 14 6.72C14 5.86 13.3 5.16 12.44 5.16C12.11 5.16 11.81 5.26 11.55 5.44L11.56 5.32C11.56 4.46 10.86 3.76 10 3.76C9.14 3.76 8.44 4.46 8.44 5.32L8.45 5.44C8.2 5.26 7.89 5.16 7.56 5.16C6.7 5.16 6 5.86 6 6.72C6 7.34 6.37 7.88 6.89 8.13C6.37 8.37 6 8.91 6 9.53ZM10 6.56C10.86 6.56 11.56 7.26 11.56 8.12C11.56 8.98 10.86 9.68 10 9.68C9.14 9.68 8.44 8.98 8.44 8.12C8.44 7.26 9.14 6.56 10 6.56ZM18 2.5V18.5H2V2.5H18ZM18 0.5H2C0.9 0.5 0 1.4 0 2.5V18.5C0 19.6 0.9 20.5 2 20.5H18C19.1 20.5 20 19.6 20 18.5V2.5C20 1.4 19.1 0.5 18 0.5Z" fill="white"/>
</svg>
