<svg width="20" height="22" viewBox="0 0 20 22" fill="none" xmlns="http://www.w3.org/2000/svg">
<path d="M16 11.72V8.5L11 6V4.5H13V2.5H11V0.5H9V2.5H7V4.5H9V6L4 8.5V11.72L0 13.5V21.5H9V17.5C9 16.95 9.45 16.5 10 16.5C10.55 16.5 11 16.95 11 17.5V21.5H20V13.5L16 11.72ZM18 19.5H13V17.46C13 15.77 11.65 14.4 10 14.4C8.35 14.4 7 15.77 7 17.46V19.5H2V14.71L6 12.9V9.55L10 7.5L14 9.54V12.89L18 14.7V19.5Z" fill="white"/>
<path d="M10 13C10.8284 13 11.5 12.3284 11.5 11.5C11.5 10.6716 10.8284 10 10 10C9.17157 10 8.5 10.6716 8.5 11.5C8.5 12.3284 9.17157 13 10 13Z" fill="white"/>
</svg>
