<svg width="52" height="42" viewBox="0 0 52 42" fill="none" xmlns="http://www.w3.org/2000/svg">
<path d="M0.237434 26.8392C1.72283 24.2007 3.69731 21.9289 6.05936 20.088C6.20646 19.6037 6.44839 19.1323 6.77296 18.7092C9.64296 12.803 16.3268 10.2327 22.3815 8.91179C25.7715 8.17823 29.1582 7.80016 32.625 8.34141C35.9376 8.86913 39.1602 10.1188 41.8591 12.139C45.2589 14.7179 47.0938 18.3227 48.7545 22.1448C48.9635 22.6329 48.3422 23.0528 47.984 22.652C42.7337 16.8592 34.4382 20.9941 28.7798 23.7C25.7567 25.1545 22.6522 26.4422 19.3016 26.7733C16.2361 27.0837 12.9034 26.7869 10.0791 25.4764C8.66104 24.8092 7.35846 23.8648 6.48082 22.5516C6.46918 22.5278 6.45754 22.504 6.4459 22.4802C4.60361 23.9653 3.03746 25.7437 1.83674 27.7868C1.69803 28.0164 1.3952 28.0309 1.18281 27.8982C0.91718 27.7472 0.6693 27.6023 0.397566 27.469C0.137471 27.3595 0.128677 27.0395 0.237434 26.8392Z" fill="white"/>
<path d="M7.22663 20.8472C7.22663 20.8472 7.35199 20.7715 7.57887 20.6317C7.80574 20.492 8.15188 20.2943 8.59953 20.0325C9.47097 19.5205 10.7534 18.853 12.2922 18.0756C13.8486 17.3044 15.6846 16.4711 17.6981 15.6989C18.7049 15.3128 19.7471 14.9389 20.8365 14.6011C21.9081 14.2572 23.0208 13.9671 24.1273 13.6947C25.2338 13.4222 26.3404 13.1498 27.458 12.9605C28.5756 12.7711 29.6688 12.6526 30.7315 12.6226C31.8003 12.575 32.8385 12.6159 33.8168 12.7153C34.7952 12.8148 35.7075 12.9906 36.536 13.2366C37.3707 13.4649 38.1038 13.7573 38.7421 14.0368C38.8958 14.1096 39.0494 14.1823 39.203 14.2551C39.3566 14.3279 39.4864 14.4122 39.6222 14.4789C39.894 14.6122 40.118 14.7687 40.3542 14.8897C40.779 15.1551 41.0973 15.3837 41.3213 15.5402C41.5454 15.6967 41.6513 15.7926 41.6513 15.7926C41.7161 15.8348 41.7993 15.8239 41.8415 15.7591C41.8837 15.6944 41.8726 15.6113 41.8255 15.5753C41.8255 15.5753 41.7196 15.4793 41.5016 15.3051C41.2837 15.1309 40.9715 14.8846 40.559 14.5838C40.3466 14.4512 40.1109 14.2709 39.8453 14.1199C39.7155 14.0355 39.568 13.945 39.4321 13.8784C39.2785 13.8056 39.131 13.7151 38.9835 13.6246C38.3458 13.2859 37.6071 12.952 36.7492 12.676C35.9151 12.3885 34.9678 12.1412 33.9662 11.9941C32.953 11.8231 31.8914 11.7346 30.77 11.7046C29.6663 11.6808 28.5143 11.7394 27.3379 11.8689C26.1793 12.0045 25.0084 12.1755 23.8425 12.4472C22.6944 12.7251 21.5573 13.0861 20.4618 13.4416C19.3603 13.8148 18.3058 14.2241 17.2869 14.6456C16.2679 15.0671 15.3022 15.507 14.3958 15.9475C13.4895 16.388 12.6424 16.8292 11.867 17.2355C10.3277 18.0721 9.06793 18.8465 8.20812 19.3824C7.77822 19.6503 7.44373 19.8718 7.21075 20.0293C6.97776 20.1867 6.87015 20.2685 6.87015 20.2685C6.71482 20.3735 6.68316 20.5806 6.7885 20.7358C6.85224 20.8964 7.05356 20.946 7.22663 20.8472Z" fill="#2E5940"/>
</svg>
