<svg width="18" height="17" viewBox="0 0 18 17" fill="none" xmlns="http://www.w3.org/2000/svg">
<path d="M18 10.5C18 9.95 17.55 9.5 17 9.5H15V11.5H17C17.55 11.5 18 11.05 18 10.5Z" fill="#2A4C38"/>
<path d="M17 13.5H15V15.5H17C17.55 15.5 18 15.05 18 14.5C18 13.95 17.55 13.5 17 13.5Z" fill="#2A4C38"/>
<path d="M9 10.5H7V14.5H9C9 15.6 9.9 16.5 11 16.5H14V8.5H11C9.9 8.5 9 9.4 9 10.5Z" fill="#2A4C38"/>
<path d="M2 9.5C2 8.4 2.9 7.5 4 7.5H5.5C7.43 7.5 9 5.93 9 4C9 2.07 7.43 0.5 5.5 0.5H2C1.45 0.5 1 0.95 1 1.5C1 2.05 1.45 2.5 2 2.5H5.5C6.33 2.5 7 3.17 7 4C7 4.83 6.33 5.5 5.5 5.5H4C1.79 5.5 0 7.29 0 9.5C0 11.71 1.79 13.5 4 13.5H6V11.5H4C2.9 11.5 2 10.6 2 9.5Z" fill="#2A4C38"/>
</svg>
