<svg width="18" height="19" viewBox="0 0 18 19" fill="none" xmlns="http://www.w3.org/2000/svg">
<path d="M17 0.50001C16 0.499987 16.55 0.50001 16 0.50001H14C13.45 0.50001 13.6667 0.50009 13 0.50009L12 0.50001V3.16668C12 3.71668 12.45 4.16668 13 4.16668H14V14.5C14 15.6 13.1 16.5 12 16.5C10.9 16.5 10 15.6 10 14.5V4.50001C10 2.29001 8.21 0.50001 6 0.50001C3.79 0.50001 2 2.29001 2 4.50001V14.8333H1C0.45 14.8333 0 15.2833 0 15.8333V18.5H1C1.66667 18.5 1.45 18.5 2 18.5H4C4.55 18.5 4 18.5 5 18.5H6V15.8333C6 15.2833 5.55 14.8333 5 14.8333H4V4.50001C4 3.40001 4.9 2.50001 6 2.50001C7.1 2.50001 8 3.40001 8 4.50001V14.5C8 16.71 9.79 18.5 12 18.5C14.21 18.5 16 16.71 16 14.5V4.16668H17C17.55 4.16668 18 3.71668 18 3.16668V0.50001H17Z" fill="#2A4C38"/>
</svg>
