<svg width="72" height="72" viewBox="0 0 72 72" fill="none" xmlns="http://www.w3.org/2000/svg">
<path d="M45.9 23.7C47.8882 23.7 49.5 22.0882 49.5 20.1C49.5 18.1118 47.8882 16.5 45.9 16.5C43.9118 16.5 42.3 18.1118 42.3 20.1C42.3 22.0882 43.9118 23.7 45.9 23.7Z" fill="white"/>
<path d="M52.902 27.498C52.2 26.796 50.994 25.5 48.654 25.5C48.276 25.5 46.098 25.5 44.082 25.5C39.132 25.482 35.1 21.45 35.1 16.5H31.5C31.5 22.188 35.298 27.012 40.5 28.578V52.5H44.1V41.7H47.7V52.5H51.3V30.99L58.41 38.1L60.948 35.562L52.902 27.498Z" fill="white"/>
<path d="M17.5032 27.5197H14.503L14.503 33H17.5032L17.5032 27.5197Z" fill="white"/>
<path d="M17.5007 22.5099V19.9924H18.5049L18.5049 17.9983L21.5032 17.9983C21.5032 16.3436 20.1596 15 18.5049 15L13.4983 15L13.4983 16.9941L11.5041 15H10.5V20.0066H11.5041L13.5054 18.0054L13.5054 19.9995H14.5095V22.517L17.5007 22.5099Z" fill="white"/>
<path d="M14.503 27.5197H17.5032L17.5007 22.5099L14.5095 22.517L14.503 27.5197Z" fill="white"/>
<path d="M28.4271 43.2464C29.7813 41.8923 29.7813 39.6891 28.4271 38.335C28.0201 37.928 27.529 37.6614 27.0168 37.5L27.0168 41.2889H24.9259L24.9259 37.5C24.4137 37.6614 23.9226 37.928 23.5156 38.335C22.1615 39.6891 22.1615 41.8923 23.5156 43.2464C23.8033 43.5341 24.1331 43.7516 24.4769 43.913L24.4839 56.85L27.4588 56.85L27.4659 43.913C27.8097 43.7516 28.1394 43.5341 28.4271 43.2464Z" fill="white"/>
</svg>
