<svg width="72" height="72" viewBox="0 0 72 72" fill="none" xmlns="http://www.w3.org/2000/svg">
<path fill-rule="evenodd" clip-rule="evenodd" d="M48.75 27C48.75 28.2375 49.7625 29.25 51 29.25C52.2375 29.25 53.25 28.2375 53.25 27C53.25 25.7625 52.2375 24.75 51 24.75C49.7625 24.75 48.75 25.7625 48.75 27ZM51 20.25C54.7687 20.25 57.75 23.1412 57.75 27.225C57.75 29.8575 55.5562 33.345 51 37.5075C46.4437 33.345 44.25 29.8575 44.25 27.225C44.25 23.1412 47.2312 20.25 51 20.25ZM60 27.225C60 21.6225 55.725 18 51 18C46.275 18 42 21.6225 42 27.225C42 29.8191 43.4489 32.7442 46.343 36.0041C46.3788 36.0444 46.4149 36.0848 46.4511 36.1252C47.3321 37.108 48.3439 38.1211 49.4862 39.1645C49.4866 39.1649 49.487 39.1653 49.4874 39.1656C49.4899 39.168 49.4925 39.1703 49.495 39.1726C49.9738 39.6098 50.4754 40.0522 51 40.5C56.9962 35.3813 60 30.96 60 27.225ZM43.5 39C43.5 38.5229 43.6129 38.0708 43.8133 37.6693C44.9588 38.992 46.2967 40.3339 47.8121 41.696C47.4152 41.8906 46.9697 42 46.5 42C44.85 42 43.5 40.65 43.5 39ZM34.5 41.625C36.945 41.625 39.105 42.21 40.86 42.975C42.48 43.695 43.5 45.315 43.5 47.07V49.5H25.5V47.085C25.5 45.315 26.52 43.695 28.14 42.99C29.895 42.21 32.055 41.625 34.5 41.625ZM22.5 42C24.15 42 25.5 40.65 25.5 39C25.5 37.35 24.15 36 22.5 36C20.85 36 19.5 37.35 19.5 39C19.5 40.65 20.85 42 22.5 42ZM24.195 43.65C23.64 43.56 23.085 43.5 22.5 43.5C21.015 43.5 19.605 43.815 18.33 44.37C17.22 44.85 16.5 45.93 16.5 47.145V49.5H23.25V47.085C23.25 45.84 23.595 44.67 24.195 43.65ZM52.5 47.145C52.5 45.93 51.78 44.85 50.67 44.37C49.395 43.815 47.985 43.5 46.5 43.5C45.915 43.5 45.36 43.56 44.805 43.65C45.405 44.67 45.75 45.84 45.75 47.085V49.5H52.5V47.145ZM34.5 31.5C36.99 31.5 39 33.51 39 36C39 38.49 36.99 40.5 34.5 40.5C32.01 40.5 30 38.49 30 36C30 33.51 32.01 31.5 34.5 31.5Z" fill="white"/>
</svg>
