<svg width="20" height="19" viewBox="0 0 20 19" fill="none" xmlns="http://www.w3.org/2000/svg">
<path d="M19.8995 6.39L18.8495 2.02C18.6295 1.12 17.8495 0.5 16.9395 0.5H3.04952C2.14952 0.5 1.35952 1.13 1.14952 2.02L0.0995183 6.39C-0.140482 7.41 0.0795184 8.45 0.719518 9.27C0.799518 9.38 0.909518 9.46 0.999518 9.56V16.5C0.999518 17.6 1.89952 18.5 2.99952 18.5H16.9995C18.0995 18.5 18.9995 17.6 18.9995 16.5V9.56C19.0895 9.47 19.1995 9.38 19.2795 9.28C19.9195 8.46 20.1495 7.41 19.8995 6.39ZM16.9095 2.49L17.9595 6.86C18.0595 7.28 17.9695 7.7 17.7095 8.03C17.5695 8.21 17.2695 8.5 16.7695 8.5C16.1595 8.5 15.6295 8.01 15.5595 7.36L14.9795 2.5L16.9095 2.49ZM10.9995 2.5H12.9595L13.4995 7.02C13.5495 7.41 13.4295 7.8 13.1695 8.09C12.9495 8.35 12.6295 8.5 12.2195 8.5C11.5495 8.5 10.9995 7.91 10.9995 7.19V2.5ZM6.48952 7.02L7.03952 2.5H8.99952V7.19C8.99952 7.91 8.44952 8.5 7.70952 8.5C7.36952 8.5 7.05952 8.35 6.81952 8.09C6.56952 7.8 6.44952 7.41 6.48952 7.02ZM2.03952 6.86L3.04952 2.5H5.01952L4.43952 7.36C4.35952 8.01 3.83952 8.5 3.22952 8.5C2.73952 8.5 2.42952 8.21 2.29952 8.03C2.02952 7.71 1.93952 7.28 2.03952 6.86ZM2.99952 16.5V10.47C3.07952 10.48 3.14952 10.5 3.22952 10.5C4.09952 10.5 4.88952 10.14 5.46952 9.55C6.06952 10.15 6.86952 10.5 7.77952 10.5C8.64952 10.5 9.42952 10.14 10.0095 9.57C10.5995 10.14 11.3995 10.5 12.2995 10.5C13.1395 10.5 13.9395 10.15 14.5395 9.55C15.1195 10.14 15.9095 10.5 16.7795 10.5C16.8595 10.5 16.9295 10.48 17.0095 10.47V16.5H2.99952Z" fill="white"/>
</svg>
